<svg width="152" height="56" viewBox="0 0 152 56" fill="none" xmlns="http://www.w3.org/2000/svg">
<ellipse cx="47.0647" cy="28.0441" rx="20.1336" ry="19.8939" fill="#4096FE"/>
<g filter="url(#filter0_b)">
<path d="M67.031 13.269C65.1877 13.269 63.6324 13.7788 62.3075 14.8551C61.213 15.6482 60.2914 16.7811 59.4849 18.2539V14.0621H52.9757V43.3482H59.4849V27.8271C59.4849 25.3347 60.2338 23.3521 61.8467 21.8226C63.2291 20.4631 64.7844 19.84 66.5125 19.84C67.895 19.84 69.2775 20.0099 70.7752 20.4631V14.0054C69.7383 13.4956 68.4711 13.269 67.031 13.269Z" fill="url(#paint0_linear)"/>
<path d="M78.9563 2.10971C77.689 2.10971 76.6521 2.50624 75.7881 3.29928C74.924 4.09233 74.5208 5.11196 74.5208 6.35818C74.5208 7.6044 74.924 8.62403 75.7881 9.47373C76.6521 10.2668 77.689 10.6633 78.9563 10.6633C80.2235 10.6633 81.2604 10.2668 82.1245 9.47373C82.9885 8.68068 83.4493 7.6044 83.4493 6.35818C83.4493 5.11196 82.9885 4.09233 82.1821 3.29928C81.318 2.50624 80.2235 2.10971 78.9563 2.10971ZM75.6729 14.0621V43.3482H82.2397V14.0621H75.6729Z" fill="url(#paint1_linear)"/>
<path d="M105.764 13.269C103.979 13.269 102.366 13.6089 100.868 14.3453C99.428 15.0251 98.1032 16.1013 96.9511 17.4609V14.0621H90.3843V43.3482H96.9511V25.7312C97.1815 23.4087 97.988 21.596 99.3704 20.3498C100.58 19.2169 102.02 18.6504 103.633 18.6504C108.126 18.6504 110.373 21.0296 110.373 25.8445V43.3482H116.94V25.278C116.94 17.2343 113.195 13.269 105.764 13.269Z" fill="url(#paint2_linear)"/>
<path d="M136.24 13.269C132.208 13.269 128.924 14.6285 126.447 17.3476C123.913 20.0666 122.703 23.6353 122.703 28.0537C122.703 32.4721 123.913 36.0408 126.447 38.7032C128.924 41.3089 132.208 42.6685 136.24 42.6685C139.926 42.6685 142.864 41.139 145.053 38.1368V42.4419C145.053 47.6533 142.576 50.2591 137.622 50.2591C135.318 50.2591 133.648 49.9192 132.611 49.2961C131.516 48.6163 130.825 47.4834 130.48 45.8406H123.913C124.489 49.1261 125.871 51.5053 128.06 53.0914C130.249 54.5642 133.417 55.3572 137.622 55.3572C146.954 55.3572 151.62 50.7122 151.62 41.4789V14.0621H145.053V17.6308C142.864 14.6852 139.926 13.269 136.24 13.269ZM137.277 18.4805C139.754 18.4805 141.712 19.3302 143.095 21.0296C144.42 22.729 145.111 25.0515 145.111 28.0537C145.111 30.9993 144.42 33.2652 143.095 34.9646C141.712 36.5507 139.754 37.4004 137.219 37.4004C134.339 37.4004 132.323 36.4374 131.056 34.568C129.961 32.9819 129.443 30.8294 129.443 28.0537C129.443 24.9948 130.134 22.6723 131.516 21.0296C132.899 19.3302 134.8 18.4805 137.277 18.4805Z" fill="url(#paint3_linear)"/>
</g>
<g filter="url(#filter1_b)">
<path fill-rule="evenodd" clip-rule="evenodd" d="M62.5045 15.1033L62.4973 15.1085C61.4516 15.8662 60.5579 16.9581 59.7667 18.4031L59.1649 18.2539V14.3768H53.2957V43.0335H59.1649V27.8271C59.1649 25.2674 59.9369 23.1975 61.6224 21.5981C63.0611 20.1842 64.6959 19.5253 66.5125 19.5253C67.7956 19.5253 69.0814 19.6689 70.4552 20.0432V14.2039C69.5087 13.7802 68.3561 13.5837 67.031 13.5837C65.2537 13.5837 63.7727 14.073 62.5113 15.0977L62.5045 15.1033ZM70.7752 14.0054V20.4631C70.668 20.4307 70.5613 20.3997 70.4552 20.3701C69.0795 19.9865 67.796 19.84 66.5125 19.84C64.7844 19.84 63.2291 20.4631 61.8467 21.8226C60.2338 23.3521 59.4849 25.3347 59.4849 27.8271V43.3482H52.9757V14.0621H59.4849V18.2539C59.5896 18.0627 59.6962 17.8772 59.8049 17.6975C60.5336 16.4927 61.3551 15.5452 62.3075 14.8551C63.6324 13.7788 65.1877 13.269 67.031 13.269C68.4711 13.269 69.7383 13.4956 70.7752 14.0054ZM78.9563 2.42441C77.7658 2.42441 76.8082 2.79349 76.0064 3.52935C75.2161 4.2547 74.8408 5.18644 74.8408 6.35818C74.8408 7.52576 75.2138 8.46206 76.0105 9.24736C76.8114 9.98076 77.7678 10.3486 78.9563 10.3486C80.1468 10.3486 81.1044 9.97952 81.9061 9.24366C82.7009 8.5142 83.1293 7.52331 83.1293 6.35818C83.1293 5.19842 82.7044 4.25982 81.9597 3.52568C81.1615 2.79491 80.149 2.42441 78.9563 2.42441ZM82.1821 3.29928C82.9885 4.09233 83.4493 5.11197 83.4493 6.35818C83.4493 7.6044 82.9885 8.68068 82.1245 9.47373C81.2604 10.2668 80.2235 10.6633 78.9563 10.6633C77.689 10.6633 76.6521 10.2668 75.7881 9.47373C74.924 8.62403 74.5208 7.6044 74.5208 6.35818C74.5208 5.11197 74.924 4.09233 75.7881 3.29928C76.6521 2.50623 77.689 2.10971 78.9563 2.10971C80.2235 2.10971 81.318 2.50623 82.1821 3.29928ZM75.6729 43.3482V14.0621H82.2397V43.3482H75.6729ZM81.9197 43.0335V14.3768H75.9929V43.0335H81.9197ZM101.007 14.629C99.6157 15.2855 98.3258 16.3302 97.1969 17.6623L96.6311 18.3301V14.3768H90.7043V43.0335H96.6311V25.7159L96.6326 25.7007C96.8683 23.3248 97.6976 21.4321 99.1519 20.1199C100.419 18.9337 101.937 18.3357 103.633 18.3357C105.935 18.3357 107.72 18.9464 108.923 20.2284C110.122 21.5056 110.693 23.3949 110.693 25.8445V43.0335H116.62V25.278C116.62 21.2981 115.693 18.3863 113.903 16.47C112.118 14.5588 109.423 13.5837 105.764 13.5837C104.022 13.5837 102.459 13.9149 101.011 14.6268L101.007 14.629ZM116.94 43.3482H110.373V25.8445C110.373 21.0296 108.126 18.6504 103.633 18.6504C102.02 18.6504 100.58 19.2169 99.3704 20.3498C97.9879 21.596 97.1815 23.4087 96.9511 25.7312V43.3482H90.3843V14.0621H96.9511V17.4609C97.0563 17.3367 97.163 17.2148 97.2711 17.0954C98.3462 15.908 99.5596 14.963 100.868 14.3453C102.366 13.6089 103.979 13.269 105.764 13.269C113.195 13.269 116.94 17.2343 116.94 25.278V43.3482ZM126.686 17.5575L126.683 17.5602C124.215 20.208 123.023 23.6941 123.023 28.0537C123.023 32.4143 124.215 35.8984 126.681 38.4881C129.092 41.0247 132.288 42.3538 136.24 42.3538C139.819 42.3538 142.662 40.8765 144.793 37.9534L145.373 37.1577V42.4419C145.373 45.091 144.744 47.1365 143.429 48.5197C142.111 49.9068 140.154 50.5738 137.622 50.5738C135.299 50.5738 133.557 50.2332 132.444 49.5646L132.44 49.5622C131.309 48.8598 130.597 47.7222 130.222 46.1553H124.297C124.898 49.1845 126.221 51.3657 128.245 52.8347C130.361 54.2563 133.455 55.0425 137.622 55.0425C142.238 55.0425 145.641 53.8941 147.893 51.6591C150.146 49.4235 151.3 46.0475 151.3 41.4789V14.3768H145.373V18.5948L144.795 17.8165C142.668 14.9543 139.827 13.5837 136.24 13.5837C132.289 13.5837 129.096 14.9119 126.686 17.5575ZM145.053 14.0621H151.62V41.4789C151.62 50.7122 146.954 55.3572 137.622 55.3572C133.417 55.3572 130.249 54.5642 128.06 53.0914C125.942 51.5564 124.579 49.2786 123.971 46.1553C123.951 46.0514 123.931 45.9465 123.913 45.8406H130.48C130.825 47.4834 131.516 48.6163 132.611 49.2961C133.648 49.9192 135.318 50.2591 137.622 50.2591C142.576 50.2591 145.053 47.6533 145.053 42.4419V38.1368C144.948 38.2807 144.842 38.4213 144.733 38.5584C142.581 41.2822 139.75 42.6685 136.24 42.6685C132.208 42.6685 128.924 41.3089 126.447 38.7032C123.913 36.0408 122.703 32.4721 122.703 28.0537C122.703 23.6353 123.913 20.0666 126.447 17.3476C128.924 14.6285 132.208 13.269 136.24 13.269C139.75 13.269 142.581 14.5526 144.733 17.2176C144.842 17.3518 144.948 17.4896 145.053 17.6308V14.0621ZM143.345 20.833L143.349 20.8381C144.729 22.6086 145.431 25.0058 145.431 28.0537C145.431 31.0475 144.728 33.387 143.349 35.156L143.343 35.1628L143.338 35.1694C141.886 36.8347 139.834 37.7151 137.219 37.7151C134.258 37.7151 132.13 36.7189 130.79 34.7436C129.646 33.0856 129.123 30.8624 129.123 28.0537C129.123 24.9531 129.823 22.5496 131.268 20.831C132.718 19.0497 134.715 18.1658 137.277 18.1658C139.836 18.1658 141.893 19.0484 143.345 20.833ZM131.056 34.568C132.323 36.4374 134.339 37.4004 137.219 37.4004C139.754 37.4004 141.712 36.5507 143.095 34.9646C144.42 33.2652 145.111 30.9993 145.111 28.0537C145.111 25.0515 144.42 22.729 143.095 21.0296C141.712 19.3302 139.754 18.4805 137.277 18.4805C134.8 18.4805 132.899 19.3302 131.516 21.0296C130.134 22.6723 129.443 24.9948 129.443 28.0537C129.443 30.8294 129.961 32.9819 131.056 34.568Z" fill="url(#paint4_linear)" fill-opacity="0.5"/>
</g>
<g filter="url(#filter2_bd)">
<ellipse cx="36.7442" cy="21.3277" rx="16.1586" ry="15.9662" fill="url(#paint5_linear)"/>
<path d="M52.8369 21.3277C52.8369 30.1085 45.6327 37.228 36.7442 37.228C27.8557 37.228 20.6515 30.1085 20.6515 21.3277C20.6515 12.5469 27.8557 5.4274 36.7442 5.4274C45.6327 5.4274 52.8369 12.5469 52.8369 21.3277Z" stroke="url(#paint6_linear)" stroke-opacity="0.5" stroke-width="0.131774"/>
</g>
<g filter="url(#filter3_b)">
<path d="M1.31774 1.36996C0.589971 1.36996 0 1.95994 0 2.6877V46.6203C0 47.3481 0.589972 47.938 1.31774 47.938H17.2844C24.9663 47.938 30.7277 45.8509 34.7012 41.6768C38.4759 37.6983 40.3964 32.024 40.3964 24.654C40.3964 17.2188 38.4759 11.5445 34.7012 7.63122C30.7277 3.45705 24.9663 1.36996 17.2844 1.36996H1.31774Z" fill="#3EA0FE" fill-opacity="0.65"/>
</g>
<g filter="url(#filter4_bd)">
<path d="M16.0434 12.014C13.5587 12.014 12.3163 12.014 11.5444 12.786C10.7725 13.5579 10.7725 14.8002 10.7725 17.285V32.0229C10.7725 34.5076 10.7725 35.75 11.5444 36.5219C12.3163 37.2938 13.5587 37.2938 16.0434 37.2938H18.8385C22.4234 37.2938 25.1121 36.1609 26.9663 33.8949C28.7279 31.7351 29.6241 28.6548 29.6241 24.6539C29.6241 20.6177 28.7279 17.5374 26.9663 15.413C25.1121 13.147 22.4234 12.014 18.8385 12.014H16.0434Z" fill="url(#paint7_linear)"/>
<path d="M26.9153 15.4547L26.9156 15.4551C28.6638 17.5633 29.5582 20.6264 29.5582 24.6539C29.5582 28.6458 28.664 31.7092 26.9153 33.8531C25.0763 36.1006 22.4083 37.228 18.8385 37.228H16.0434C14.7992 37.228 13.8726 37.2278 13.1604 37.1321C12.45 37.0365 11.9626 36.847 11.591 36.4753C11.2193 36.1037 11.0298 35.6163 10.9342 34.9059C10.8385 34.1937 10.8383 33.2671 10.8383 32.0229V17.285C10.8383 16.0408 10.8385 15.1142 10.9342 14.4019C11.0298 13.6916 11.2193 13.2042 11.591 12.8325C11.9626 12.4609 12.45 12.2713 13.1604 12.1758C13.8726 12.0801 14.7992 12.0799 16.0434 12.0799H18.8385C22.4083 12.0799 25.0763 13.2073 26.9153 15.4547Z" stroke="url(#paint8_linear)" stroke-opacity="0.5" stroke-width="0.131774"/>
</g>
<defs>
<filter id="filter0_b" x="29.3204" y="-21.5456" width="145.955" height="100.558" filterUnits="userSpaceOnUse" color-interpolation-filters="sRGB">
<feFlood flood-opacity="0" result="BackgroundImageFix"/>
<feGaussianBlur in="BackgroundImage" stdDeviation="11.8277"/>
<feComposite in2="SourceAlpha" operator="in" result="effect1_backgroundBlur"/>
<feBlend mode="normal" in="SourceGraphic" in2="effect1_backgroundBlur" result="shape"/>
</filter>
<filter id="filter1_b" x="29.3204" y="-21.5456" width="145.955" height="100.558" filterUnits="userSpaceOnUse" color-interpolation-filters="sRGB">
<feFlood flood-opacity="0" result="BackgroundImageFix"/>
<feGaussianBlur in="BackgroundImage" stdDeviation="11.8277"/>
<feComposite in2="SourceAlpha" operator="in" result="effect1_backgroundBlur"/>
<feBlend mode="normal" in="SourceGraphic" in2="effect1_backgroundBlur" result="shape"/>
</filter>
<filter id="filter2_bd" x="10.7026" y="-4.52154" width="53.4009" height="53.0162" filterUnits="userSpaceOnUse" color-interpolation-filters="sRGB">
<feFlood flood-opacity="0" result="BackgroundImageFix"/>
<feGaussianBlur in="BackgroundImage" stdDeviation="4.94152"/>
<feComposite in2="SourceAlpha" operator="in" result="effect1_backgroundBlur"/>
<feColorMatrix in="SourceAlpha" type="matrix" values="0 0 0 0 0 0 0 0 0 0 0 0 0 0 0 0 0 0 127 0"/>
<feOffset dx="3.29435" dy="3.29435"/>
<feGaussianBlur stdDeviation="3.95322"/>
<feColorMatrix type="matrix" values="0 0 0 0 0.15375 0 0 0 0 0.522433 0 0 0 0 0.9 0 0 0 0.28 0"/>
<feBlend mode="normal" in2="effect1_backgroundBlur" result="effect2_dropShadow"/>
<feBlend mode="normal" in="SourceGraphic" in2="effect2_dropShadow" result="shape"/>
</filter>
<filter id="filter3_b" x="-15.8129" y="-14.4429" width="72.0221" height="78.1938" filterUnits="userSpaceOnUse" color-interpolation-filters="sRGB">
<feFlood flood-opacity="0" result="BackgroundImageFix"/>
<feGaussianBlur in="BackgroundImage" stdDeviation="7.90644"/>
<feComposite in2="SourceAlpha" operator="in" result="effect1_backgroundBlur"/>
<feBlend mode="normal" in="SourceGraphic" in2="effect1_backgroundBlur" result="shape"/>
</filter>
<filter id="filter4_bd" x="0.889412" y="2.13099" width="39.9355" height="46.3636" filterUnits="userSpaceOnUse" color-interpolation-filters="sRGB">
<feFlood flood-opacity="0" result="BackgroundImageFix"/>
<feGaussianBlur in="BackgroundImage" stdDeviation="4.94152"/>
<feComposite in2="SourceAlpha" operator="in" result="effect1_backgroundBlur"/>
<feColorMatrix in="SourceAlpha" type="matrix" values="0 0 0 0 0 0 0 0 0 0 0 0 0 0 0 0 0 0 127 0"/>
<feOffset dx="3.29435" dy="3.29435"/>
<feGaussianBlur stdDeviation="3.95322"/>
<feColorMatrix type="matrix" values="0 0 0 0 0.15375 0 0 0 0 0.522433 0 0 0 0 0.9 0 0 0 0.28 0"/>
<feBlend mode="normal" in2="effect1_backgroundBlur" result="effect2_dropShadow"/>
<feBlend mode="normal" in="SourceGraphic" in2="effect2_dropShadow" result="shape"/>
</filter>
<linearGradient id="paint0_linear" x1="147.601" y1="-2.74553" x2="41.6982" y2="-43.6033" gradientUnits="userSpaceOnUse">
<stop stop-color="white"/>
<stop offset="1" stop-color="white" stop-opacity="0.4"/>
</linearGradient>
<linearGradient id="paint1_linear" x1="147.601" y1="-2.74553" x2="41.6982" y2="-43.6033" gradientUnits="userSpaceOnUse">
<stop stop-color="white"/>
<stop offset="1" stop-color="white" stop-opacity="0.4"/>
</linearGradient>
<linearGradient id="paint2_linear" x1="147.601" y1="-2.74553" x2="41.6982" y2="-43.6033" gradientUnits="userSpaceOnUse">
<stop stop-color="white"/>
<stop offset="1" stop-color="white" stop-opacity="0.4"/>
</linearGradient>
<linearGradient id="paint3_linear" x1="147.601" y1="-2.74553" x2="41.6982" y2="-43.6033" gradientUnits="userSpaceOnUse">
<stop stop-color="white"/>
<stop offset="1" stop-color="white" stop-opacity="0.4"/>
</linearGradient>
<linearGradient id="paint4_linear" x1="60.8581" y1="9.43912" x2="150.531" y2="10.1036" gradientUnits="userSpaceOnUse">
<stop stop-color="white"/>
<stop offset="1" stop-color="white" stop-opacity="0"/>
</linearGradient>
<linearGradient id="paint5_linear" x1="50.6115" y1="11.1279" x2="14.6142" y2="12.3157" gradientUnits="userSpaceOnUse">
<stop stop-color="white"/>
<stop offset="1" stop-color="white" stop-opacity="0.2"/>
</linearGradient>
<linearGradient id="paint6_linear" x1="24.0669" y1="16.0733" x2="51.5086" y2="16.2266" gradientUnits="userSpaceOnUse">
<stop stop-color="white"/>
<stop offset="1" stop-color="white" stop-opacity="0"/>
</linearGradient>
<linearGradient id="paint7_linear" x1="28.2875" y1="16.5791" x2="7.27869" y2="17.0899" gradientUnits="userSpaceOnUse">
<stop stop-color="white"/>
<stop offset="1" stop-color="white" stop-opacity="0.2"/>
</linearGradient>
<linearGradient id="paint8_linear" x1="12.8032" y1="20.4942" x2="28.8111" y2="20.5601" gradientUnits="userSpaceOnUse">
<stop stop-color="white"/>
<stop offset="1" stop-color="white" stop-opacity="0"/>
</linearGradient>
</defs>
</svg>
