<svg width="406" height="67" viewBox="0 0 406 67" fill="none" xmlns="http://www.w3.org/2000/svg">
<g filter="url(#filter0_f)">
<path d="M9.24159 3.00001L15.4834 9.24182L9.24159 15.4836V3.00001Z" fill="#5CDAF5"/>
</g>
<path d="M9.24159 3.00001L15.4834 9.24182L9.24159 15.4836V3.00001Z" fill="#5CDAF5"/>
<path d="M396.758 15.5464L390.517 9.30457L396.758 3.06276L396.758 15.5464Z" fill="#5CDAF5"/>
<g filter="url(#filter1_f)">
<path d="M396.758 15.5464L390.517 9.30457L396.758 3.06276L396.758 15.5464Z" fill="#5CDAF5"/>
</g>
<g opacity="0.5">
<line x1="38.0156" y1="64.9993" x2="149.239" y2="64.9993" stroke="#5CDAF5" stroke-width="0.296449"/>
<circle cx="149.238" cy="65.1476" r="1.17697" fill="#5CDAF5"/>
<circle cx="38.3093" cy="65.1476" r="1.17697" fill="#5CDAF5"/>
</g>
<g opacity="0.5">
<line x1="256.636" y1="64.9993" x2="367.86" y2="64.9993" stroke="#5CDAF5" stroke-width="0.296449"/>
<circle cx="367.861" cy="65.1476" r="1.17697" fill="#5CDAF5"/>
<circle cx="256.931" cy="65.1476" r="1.17697" fill="#5CDAF5"/>
</g>
<defs>
<filter id="filter0_f" x="0.0355144" y="0.0355144" width="18.4126" height="18.4126" filterUnits="userSpaceOnUse" color-interpolation-filters="sRGB">
<feFlood flood-opacity="0" result="BackgroundImageFix"/>
<feBlend mode="normal" in="SourceGraphic" in2="BackgroundImageFix" result="shape"/>
<feGaussianBlur stdDeviation="1.48224" result="effect1_foregroundBlur"/>
</filter>
<filter id="filter1_f" x="387.552" y="0.0982585" width="18.4126" height="18.4126" filterUnits="userSpaceOnUse" color-interpolation-filters="sRGB">
<feFlood flood-opacity="0" result="BackgroundImageFix"/>
<feBlend mode="normal" in="SourceGraphic" in2="BackgroundImageFix" result="shape"/>
<feGaussianBlur stdDeviation="1.48224" result="effect1_foregroundBlur"/>
</filter>
</defs>
</svg>
