<svg width="759" height="842" viewBox="0 0 759 842" fill="none" xmlns="http://www.w3.org/2000/svg">
<g filter="url(#filter0_f)">
<path d="M589 305.425L589 536.275L389.5 651.7L190 536.275L190 305.425L389.5 190L589 305.425Z" fill="#2385DF" fill-opacity="0.2"/>
</g>
<path d="M570 316.825L570 524.875L389.5 628.9L209 524.875L209 316.825L389.5 212.8L570 316.825Z" fill="#2385DF" fill-opacity="0.05" stroke="#0D6DC5" stroke-width="3.8"/>
<mask id="mask0" mask-type="alpha" maskUnits="userSpaceOnUse" x="209" y="212" width="174" height="200">
<path d="M382.205 262L382.205 362L295.603 412L209 362L209 262L295.603 212L382.205 262Z" fill="#2385DF" fill-opacity="0.5"/>
</mask>
<g mask="url(#mask0)">
<path d="M448.735 312L296 464.735M445.907 309.171L293.172 461.906M443.078 306.343L290.343 459.078M440.25 303.514L287.515 456.25M437.421 300.686L284.686 453.421M434.593 297.858L281.858 450.593M431.765 295.029L279.029 447.764M428.936 292.201L276.201 444.936M426.108 289.372L273.373 442.107M423.279 286.544L270.544 439.279M420.451 283.715L267.716 436.451M417.622 280.887L264.887 433.622M414.794 278.059L262.059 430.794M411.966 275.23L259.23 427.965M409.137 272.402L256.402 425.137M406.309 269.573L253.574 422.308M403.48 266.745L250.745 419.48M400.652 263.916L247.917 416.652M397.823 261.088L245.088 413.823M394.995 258.26L242.26 410.995M392.167 255.431L239.431 408.166M389.338 252.603L236.603 405.338M386.51 249.774L233.775 402.509M383.681 246.946L230.946 399.681M380.853 244.117L228.118 396.853M378.024 241.289L225.289 394.024M375.196 238.461L222.461 391.196M372.368 235.632L219.632 388.367M369.539 232.804L216.804 385.539M366.711 229.975L213.976 382.71M363.882 227.147L211.147 379.882M361.054 224.318L208.319 377.054M358.225 221.49L205.49 374.225M355.397 218.662L202.662 371.397M352.569 215.833L199.833 368.568M349.74 213.005L197.005 365.74M346.912 210.176L194.177 362.911M344.083 207.348L191.348 360.083M341.255 204.519L188.52 357.255M338.426 201.691L185.691 354.426M335.598 198.863L182.863 351.598M332.77 196.034L180.034 348.769M329.941 193.206L177.206 345.941M327.113 190.377L174.378 343.112M324.284 187.549L171.549 340.284M321.456 184.72L168.721 337.456M318.627 181.892L165.892 334.627M315.799 179.064L163.064 331.799M312.971 176.235L160.236 328.97M310.142 173.407L157.407 326.142M307.314 170.578L154.579 323.313M304.485 167.75L151.75 320.485M301.657 164.922L148.922 317.657M298.828 162.093L146.093 314.828M296 159.265L143.265 312" stroke="#4AA8FF" stroke-opacity="0.4"/>
</g>
<circle cx="391.4" cy="231.8" r="1.9" fill="#4285F4"/>
<circle cx="228" cy="513" r="1.9" fill="#4285F4"/>
<circle cx="228" cy="328.7" r="1.9" fill="#4285F4"/>
<circle cx="554.8" cy="328.7" r="1.9" fill="#4285F4"/>
<circle cx="554.8" cy="516.8" r="1.9" fill="#4285F4"/>
<circle cx="391.4" cy="609.9" r="1.9" fill="#4285F4"/>
<defs>
<filter id="filter0_f" x="0" y="0" width="779" height="841.7" filterUnits="userSpaceOnUse" color-interpolation-filters="sRGB">
<feFlood flood-opacity="0" result="BackgroundImageFix"/>
<feBlend mode="normal" in="SourceGraphic" in2="BackgroundImageFix" result="shape"/>
<feGaussianBlur stdDeviation="95" result="effect1_foregroundBlur"/>
</filter>
</defs>
</svg>
