<svg width="410" height="440" viewBox="0 0 410 440" fill="none" xmlns="http://www.w3.org/2000/svg">
<ellipse cx="205" cy="233.605" rx="201.395" ry="200" transform="rotate(90 205 233.605)" stroke="#5BE1FF" stroke-opacity="0.07" stroke-width="8.05581"/>
<ellipse cx="205" cy="233.605" rx="201.395" ry="200" transform="rotate(90 205 233.605)" stroke="url(#paint0_linear)" stroke-width="8.05581"/>
<ellipse cx="205" cy="233.605" rx="201.395" ry="200" transform="rotate(90 205 233.605)" stroke="url(#paint1_linear)" stroke-width="8.05581"/>
<g opacity="0.5" filter="url(#filter0_f)">
<ellipse cx="208.55" cy="32.8261" rx="12.2448" ry="12.3303" fill="url(#paint2_radial)"/>
</g>
<g filter="url(#filter1_f)">
<path d="M208.551 2L211.083 28.5931L236.102 31.2844L211.083 33.9756L208.551 60.5687L206.019 33.9756L181 31.2844L206.019 28.5931L208.551 2Z" fill="#D3F7FF"/>
</g>
<defs>
<filter id="filter0_f" x="190.14" y="14.3307" width="36.8199" height="36.9908" filterUnits="userSpaceOnUse" color-interpolation-filters="sRGB">
<feFlood flood-opacity="0" result="BackgroundImageFix"/>
<feBlend mode="normal" in="SourceGraphic" in2="BackgroundImageFix" result="shape"/>
<feGaussianBlur stdDeviation="3.08256" result="effect1_foregroundBlur"/>
</filter>
<filter id="filter1_f" x="179.15" y="0.150462" width="58.8008" height="62.2678" filterUnits="userSpaceOnUse" color-interpolation-filters="sRGB">
<feFlood flood-opacity="0" result="BackgroundImageFix"/>
<feBlend mode="normal" in="SourceGraphic" in2="BackgroundImageFix" result="shape"/>
<feGaussianBlur stdDeviation="0.924769" result="effect1_foregroundBlur"/>
</filter>
<linearGradient id="paint0_linear" x1="3.60467" y1="233.605" x2="81.1419" y2="233.605" gradientUnits="userSpaceOnUse">
<stop stop-color="#5BE1FF"/>
<stop offset="1" stop-color="#5BE1FF" stop-opacity="0"/>
</linearGradient>
<linearGradient id="paint1_linear" x1="406.395" y1="233.605" x2="189.895" y2="233.605" gradientUnits="userSpaceOnUse">
<stop stop-color="#5BE1FF"/>
<stop offset="1" stop-color="#5BE1FF" stop-opacity="0"/>
</linearGradient>
<radialGradient id="paint2_radial" cx="0" cy="0" r="1" gradientUnits="userSpaceOnUse" gradientTransform="translate(208.55 32.8261) rotate(90) scale(19.7284 19.5917)">
<stop stop-color="#E7ECFF"/>
<stop offset="0.979167" stop-color="#ABC3FF" stop-opacity="0.8825"/>
<stop offset="1" stop-color="#AACCFF" stop-opacity="0.88"/>
</radialGradient>
</defs>
</svg>
