<svg width="46" height="41" viewBox="0 0 46 41" fill="none" xmlns="http://www.w3.org/2000/svg">
<path fill-rule="evenodd" clip-rule="evenodd" d="M4.6 4.55556H41.4V27.3561L29.2238 15.2748C28.7925 14.8478 28.2076 14.6079 27.5977 14.6079C26.9878 14.6079 26.4029 14.8478 25.9716 15.2748L4.6 36.4444V4.55556ZM0.67278 0.667885C0.245871 1.0911 0.0042091 1.66364 0 2.26183V38.7382C0 39.3377 0.240309 39.9126 0.668126 40.3367C1.09594 40.7608 1.67627 40.9994 2.2816 41H43.7184C44.3224 40.9952 44.9003 40.7553 45.3272 40.3321C45.7541 39.9089 45.9958 39.3364 46 38.7382V2.26183C46 1.01361 44.9788 0 43.7184 0H2.2816C1.67757 0.00477115 1.09969 0.244674 0.67278 0.667885ZM14 17C12.9391 17 11.9217 16.5786 11.1716 15.8284C10.4214 15.0783 10 14.0609 10 13C10 11.9391 10.4214 10.9217 11.1716 10.1716C11.9217 9.42143 12.9391 9 14 9C15.0609 9 16.0783 9.42143 16.8284 10.1716C17.5786 10.9217 18 11.9391 18 13C18 14.0609 17.5786 15.0783 16.8284 15.8284C16.0783 16.5786 15.0609 17 14 17Z" fill="#5ED3A3"/>
</svg>
