<svg width="52" height="41" viewBox="0 0 52 41" fill="none" xmlns="http://www.w3.org/2000/svg">
<rect y="3" width="10" height="35" rx="2" fill="#5889EE"/>
<rect x="42" y="3" width="10" height="35" rx="2" fill="#5889EE"/>
<path d="M10.25 18.225L14.75 13.725L27.125 26.1L35 18.225L41.75 24.975V4.5H10.25V18.225ZM8 0H44C44.5967 0 45.169 0.237053 45.591 0.65901C46.0129 1.08097 46.25 1.65326 46.25 2.25V38.25C46.25 38.8467 46.0129 39.419 45.591 39.841C45.169 40.2629 44.5967 40.5 44 40.5H8C7.40326 40.5 6.83097 40.2629 6.40901 39.841C5.98705 39.419 5.75 38.8467 5.75 38.25V2.25C5.75 1.65326 5.98705 1.08097 6.40901 0.65901C6.83097 0.237053 7.40326 0 8 0ZM33.875 15.75C32.9799 15.75 32.1214 15.3944 31.4885 14.7615C30.8556 14.1286 30.5 13.2701 30.5 12.375C30.5 11.4799 30.8556 10.6214 31.4885 9.98851C32.1214 9.35558 32.9799 9 33.875 9C34.7701 9 35.6285 9.35558 36.2615 9.98851C36.8944 10.6214 37.25 11.4799 37.25 12.375C37.25 13.2701 36.8944 14.1286 36.2615 14.7615C35.6285 15.3944 34.7701 15.75 33.875 15.75Z" fill="#5ED3A3"/>
</svg>
